<?xml version="1.0" standalone="no"?>
<!DOCTYPE svg PUBLIC "-//W3C//DTD SVG 20010904//EN"
 "http://www.w3.org/TR/2001/REC-SVG-20010904/DTD/svg10.dtd">
<svg version="1.0" xmlns="http://www.w3.org/2000/svg"
 width="700.000000pt" height="700.000000pt" viewBox="0 0 700.000000 700.000000"
 preserveAspectRatio="xMidYMid meet">
<metadata>
Created by potrace 1.11, written by Peter Selinger 2001-2013
</metadata>
<g transform="translate(0.000000,700.000000) scale(0.100000,-0.100000)"
fill="#000000" stroke="none">
<path d="M2500 6985 c-130 -27 -225 -114 -263 -240 -19 -64 -17 -49 -17 -170
l0 -106 -46 27 c-285 167 -622 -113 -518 -430 21 -63 46 -100 116 -174 73 -78
73 -79 41 -96 -39 -21 -85 -65 -115 -109 -30 -45 -25 -49 -102 96 l-58 108
-96 -51 c-53 -29 -100 -55 -104 -58 -3 -4 60 -132 142 -285 145 -272 148 -277
127 -292 -22 -16 -19 -19 -287 227 -171 156 -185 168 -191 168 -3 0 -40 -38
-82 -84 l-76 -84 117 -108 c64 -59 124 -115 133 -124 8 -8 57 -53 107 -99 l92
-83 -20 -33 c-66 -107 -96 -272 -76 -415 17 -116 63 -209 171 -345 39 -49 87
-110 106 -135 l34 -45 -1 -972 -1 -973 59 0 59 0 -3 -116 -3 -116 -60 -4 c-66
-4 -179 -35 -238 -66 -22 -11 -40 -18 -42 -16 -2 2 -5 41 -6 88 -5 135 -46
233 -135 324 -75 76 -188 130 -286 137 l-43 4 -3 -118 c-1 -64 1 -117 5 -118
102 -11 186 -71 213 -154 13 -41 19 -149 8 -160 -3 -4 -17 0 -30 9 -63 41
-206 74 -306 71 -111 -4 -244 -49 -329 -111 -50 -36 -147 -138 -164 -172 -7
-15 -18 -34 -24 -42 -40 -53 -72 -203 -70 -325 6 -298 76 -578 215 -857 59
-117 96 -173 148 -220 135 -122 311 -162 507 -115 11 3 56 21 99 41 42 20 79
36 81 36 2 0 41 -18 87 -39 98 -46 185 -64 277 -57 129 10 235 56 327 141 l25
23 49 -19 c28 -10 74 -22 102 -25 29 -4 56 -11 60 -17 3 -6 5 -32 4 -59 l-3
-48 1667 0 c1617 0 1670 1 1743 20 190 48 331 174 408 365 8 20 14 40 26 87 3
13 7 831 8 1818 2 1379 -1 1803 -10 1831 -12 36 -2 63 317 910 180 481 339
908 352 950 97 302 13 616 -221 829 -77 69 -210 140 -313 167 -80 20 -262 23
-340 4 -216 -51 -407 -195 -505 -383 -20 -37 -78 -181 -131 -320 -52 -138 -96
-253 -98 -255 -1 -2 -50 45 -109 103 l-106 106 -3 233 c-3 231 -3 234 -27 259
-14 14 -38 30 -55 34 -17 5 -328 8 -691 8 -598 -1 -662 -3 -683 -18 -47 -33
-56 -56 -58 -162 -2 -56 -3 -110 -3 -120 -1 -19 -2 -19 -23 1 -89 81 -263 97
-381 36 -28 -15 -55 -29 -58 -31 -3 -1 -7 49 -7 113 -1 161 -23 226 -104 307
-84 84 -194 117 -308 93z"/>
</g>
</svg>
