<?xml version="1.0" standalone="no"?>
<!DOCTYPE svg PUBLIC "-//W3C//DTD SVG 20010904//EN"
 "http://www.w3.org/TR/2001/REC-SVG-20010904/DTD/svg10.dtd">
<svg version="1.0" xmlns="http://www.w3.org/2000/svg"
 width="700.000000pt" height="700.000000pt" viewBox="0 0 700.000000 700.000000"
 preserveAspectRatio="xMidYMid meet">
<metadata>
Created by potrace 1.11, written by Peter Selinger 2001-2013
</metadata>
<g transform="translate(0.000000,700.000000) scale(0.100000,-0.100000)"
fill="#000000" stroke="none">
<path d="M2512 6988 c-61 -9 -134 -44 -178 -85 -82 -76 -114 -170 -114 -330
l0 -103 -52 29 c-219 123 -493 -15 -527 -265 -17 -126 22 -228 133 -343 65
-67 69 -74 52 -85 -59 -36 -136 -113 -149 -149 -6 -17 -7 -16 -76 116 l-63
117 -101 -55 c-56 -30 -101 -58 -100 -62 1 -5 67 -130 147 -278 146 -269 146
-270 125 -287 -12 -10 -27 -15 -33 -10 -7 4 -108 95 -225 202 -117 107 -215
196 -219 198 -4 1 -42 -36 -85 -82 l-77 -84 225 -207 225 -207 -20 -33 c-48
-78 -72 -166 -77 -285 -9 -198 30 -297 197 -508 l110 -137 0 -977 0 -978 120
0 120 0 0 880 0 880 91 -60 c98 -65 125 -76 163 -66 14 3 92 51 175 106 l151
100 149 -99 c82 -55 163 -102 179 -106 42 -9 78 9 236 114 l136 91 136 -91
c158 -105 194 -123 236 -114 16 4 97 52 179 106 l149 99 137 -91 c157 -105
193 -123 235 -114 16 4 97 51 179 106 l149 99 115 -77 115 -76 0 -1774 0
-1773 -1279 0 c-873 0 -1282 -3 -1286 -10 -4 -6 -3 -60 0 -120 l8 -110 1662 0
c1622 0 1664 0 1739 20 197 50 348 191 414 384 l27 81 3 1797 c2 1503 0 1803
-11 1836 l-14 40 329 874 c180 480 340 909 353 952 117 365 -45 764 -378 930
-129 64 -198 81 -337 80 -133 -1 -206 -17 -325 -73 -147 -70 -270 -188 -343
-330 -22 -42 -81 -188 -132 -324 l-93 -249 -108 108 -108 108 -3 227 c-3 213
-4 229 -24 256 -40 54 -42 54 -753 51 -592 -3 -658 -5 -679 -20 -49 -34 -57
-57 -61 -175 -2 -62 -5 -113 -7 -113 -2 0 -19 11 -39 24 -97 66 -252 75 -355
20 -30 -16 -58 -30 -62 -32 -5 -2 -8 49 -8 114 0 64 -5 135 -12 158 -49 167
-214 271 -386 244z m129 -257 l29 -29 0 -254 c0 -150 5 -269 11 -292 19 -70
91 -110 155 -86 16 6 79 60 139 119 116 115 146 131 201 111 65 -25 93 -76 79
-147 -5 -29 -43 -74 -211 -244 -112 -115 -213 -223 -224 -241 -19 -32 -20 -51
-20 -563 l0 -531 -37 -36 -38 -37 -44 97 c-25 53 -83 175 -129 271 -79 164
-89 180 -161 251 -104 103 -211 158 -347 180 -55 9 -69 16 -99 48 -51 54 -78
115 -71 156 9 48 41 84 87 97 35 11 46 10 95 -11 86 -35 144 -18 181 53 10 20
12 42 8 69 -6 36 -28 63 -180 217 -188 192 -204 219 -186 289 18 64 69 97 134
87 37 -6 56 -21 153 -120 87 -89 118 -115 146 -120 47 -9 102 15 128 57 19 31
20 50 20 302 l0 268 34 34 c46 46 104 48 147 5z m3494 14 c269 -70 442 -355
381 -626 -9 -41 -180 -508 -380 -1039 l-362 -965 -87 -59 -87 -59 -147 99
c-143 95 -150 99 -203 99 -53 0 -60 -4 -202 -99 l-148 -99 -115 76 -115 77 34
92 c148 408 814 2169 843 2228 104 216 357 335 588 275z m-1465 -330 l0 -115
-525 0 -525 0 0 115 0 115 525 0 525 0 0 -115z m-345 -525 l-170 -170 -475 0
-475 0 170 170 170 170 475 0 475 0 -170 -170z m387 -934 c-307 -819 -307
-819 -347 -848 l-40 -29 -3 733 -2 733 232 232 233 233 117 -117 118 -118
-308 -819z m-633 -143 l0 -668 -19 73 c-109 416 -550 660 -960 533 l-60 -19 0
374 0 374 520 0 520 0 -1 -667z m-1994 225 c67 -25 137 -77 173 -131 17 -24
98 -188 181 -364 131 -281 149 -325 144 -357 -3 -20 -7 -36 -8 -36 -2 0 -23
11 -46 25 -47 27 -97 32 -132 14 -12 -7 -82 -52 -154 -100 -73 -49 -137 -89
-142 -89 -10 0 -227 145 -258 173 l-22 19 150 116 c82 63 148 119 147 123 -6
16 -139 179 -146 179 -4 0 -71 -50 -149 -110 -78 -61 -146 -110 -151 -110 -11
0 -60 71 -84 123 -44 97 -40 235 12 336 90 179 298 260 485 189z m1385 -515
c106 -29 202 -96 269 -187 37 -50 79 -133 70 -139 -2 -1 -70 -46 -151 -100
-82 -53 -152 -97 -158 -97 -5 0 -78 45 -160 100 -126 83 -158 100 -190 100
-32 0 -64 -17 -190 -100 -82 -55 -153 -100 -156 -100 -7 0 3 87 18 155 18 82
66 165 137 236 92 92 172 130 321 153 39 6 129 -4 190 -21z m1930 -683 c83
-55 162 -103 176 -106 38 -10 65 1 163 66 l91 60 0 -1658 c0 -1821 3 -1718
-61 -1813 -41 -60 -88 -97 -158 -126 -54 -22 -68 -23 -323 -23 l-268 0 0 1773
0 1774 113 76 c61 42 113 76 114 76 2 1 70 -44 153 -99z"/>
<path d="M5703 5953 c-57 -19 -103 -40 -103 -46 0 -11 218 -688 223 -694 5 -4
227 69 227 75 -1 24 -227 696 -235 698 -6 1 -56 -13 -112 -33z"/>
<path d="M5353 5134 l-101 -35 22 -72 c13 -40 64 -198 115 -353 l92 -281 114
35 c63 20 115 38 115 41 0 3 -51 161 -114 351 -73 225 -118 346 -127 347 -8 1
-60 -14 -116 -33z"/>
<path d="M930 2216 l0 -114 37 -7 c80 -15 148 -68 177 -137 9 -20 19 -69 22
-107 7 -77 0 -86 -41 -55 -11 8 -56 26 -100 40 -100 32 -236 36 -335 10 -207
-56 -384 -231 -433 -431 -24 -98 -28 -153 -17 -295 21 -274 85 -505 207 -753
62 -125 84 -158 137 -212 109 -109 259 -164 409 -152 78 7 125 21 228 68 l66
31 54 -27 c242 -123 473 -90 657 94 94 94 240 427 290 662 43 201 58 450 33
559 -24 103 -89 218 -166 296 -183 183 -445 230 -684 123 -35 -16 -65 -29 -67
-29 -2 0 -4 30 -4 68 0 138 -45 252 -137 345 -79 80 -199 137 -290 137 l-43 0
0 -114z"/>
</g>
</svg>
